<?xml version="1.0" standalone="no"?>
<!DOCTYPE svg PUBLIC "-//W3C//DTD SVG 20010904//EN"
 "http://www.w3.org/TR/2001/REC-SVG-20010904/DTD/svg10.dtd">
<svg version="1.0" xmlns="http://www.w3.org/2000/svg"
 width="260.000000pt" height="260.000000pt" viewBox="0 0 260.000000 260.000000"
 preserveAspectRatio="xMidYMid meet">
<metadata>
Created by potrace 1.11, written by Peter Selinger 2001-2013
</metadata>
<g transform="translate(0.000000,260.000000) scale(0.100000,-0.100000)"
fill="#000000" stroke="none">
<path d="M0 1300 l0 -1300 1300 0 1300 0 0 1300 0 1300 -1300 0 -1300 0 0
-1300z m1623 865 c90 -19 230 -66 300 -101 46 -24 47 -25 41 -62 -3 -20 -9
-104 -12 -186 l-7 -148 -48 70 c-133 195 -314 292 -543 292 -121 0 -181 -13
-283 -62 -116 -55 -202 -142 -264 -266 -64 -129 -82 -214 -82 -397 0 -183 17
-268 82 -398 86 -171 231 -285 413 -323 176 -37 399 6 491 96 42 40 48 51 54
102 13 101 1 339 -18 374 -17 32 -62 60 -116 70 -17 4 -33 9 -35 13 -2 3 128
6 289 6 161 0 291 -3 289 -7 -2 -3 -17 -9 -34 -13 -16 -3 -41 -16 -56 -27 -50
-40 -57 -75 -62 -296 l-4 -203 28 7 c16 4 49 13 74 20 24 7 46 11 49 9 7 -7
-19 -24 -148 -98 -148 -84 -303 -151 -428 -184 -87 -23 -117 -27 -263 -27
-149 0 -174 2 -262 27 -290 80 -500 271 -592 540 -73 214 -56 476 45 686 128
269 354 436 673 497 91 17 323 12 429 -11z"/>
</g>
</svg>
